<svg width="61" height="48" viewBox="0 0 61 48" fill="none" xmlns="http://www.w3.org/2000/svg">
<path d="M3.96979 8.59395L0 43.4829C2.58036 51.4122 11.3139 47.2494 11.3139 43.4829L13.6958 21.7764L16.0777 0.0699384C7.82049 -0.722993 4.56526 5.42222 3.96979 8.59395Z" fill="#4362EC"/>
<path d="M25.8036 25.4437L16.0777 0.0699384L13.6958 21.7764L23.2233 47.8441L25.8036 25.4437Z" fill="#0F4397"/>
<path d="M29.3765 16.5233C26.5182 18.9021 25.8036 23.4614 25.8036 25.4437L23.2233 47.8441C32.1156 48.7956 35.3973 42.0292 35.9266 38.5271L37.1175 29.6066L38.3085 13.748C35.9266 13.3515 32.9493 13.5498 29.3765 16.5233Z" fill="#4362EC"/>
<path d="M49.0269 31.9854L38.3085 13.748L37.1175 29.6066L47.836 47.8441L49.0269 31.9854Z" fill="#0F4397"/>
<path d="M60.9363 28.4172C60.5393 26.6331 58.5544 24.6508 55.7756 24.6508C50.6303 24.6508 49.9659 27.6716 49.0269 31.9854L47.836 47.8441C56.2519 47.8441 59.2822 42.5578 59.7453 39.9147C59.7453 39.9147 61.3333 30.2013 60.9363 28.4172Z" fill="#4362EC"/>
</svg>
